<?xml version="1.0" standalone="no"?>
<!DOCTYPE svg PUBLIC "-//W3C//DTD SVG 20010904//EN"
 "http://www.w3.org/TR/2001/REC-SVG-20010904/DTD/svg10.dtd">
<svg version="1.0" xmlns="http://www.w3.org/2000/svg"
 width="849.000000pt" height="313.000000pt" viewBox="0 0 849.000000 313.000000"
 preserveAspectRatio="xMidYMid meet">
<metadata>
Created by potrace 1.16, written by Peter Selinger 2001-2019
</metadata>
<g transform="translate(0.000000,313.000000) scale(0.100000,-0.100000)"
fill="#000000" stroke="none">
<path d="M4019 2704 c-12 -13 -18 -24 -13 -24 5 -1 -2 -8 -16 -16 -14 -8 -17
-13 -7 -10 10 3 23 6 29 6 6 0 8 6 5 13 -3 7 5 13 21 14 18 1 21 -1 11 -8 -12
-7 -12 -9 0 -9 29 0 -4 -15 -41 -19 -5 -1 -8 -7 -8 -15 0 -8 -14 -17 -30 -21
-26 -6 -29 -9 -18 -22 8 -10 14 -11 16 -4 2 6 10 11 17 11 9 0 6 -8 -9 -25
-28 -30 -78 -37 -55 -7 13 15 12 16 -4 3 -9 -8 -15 -16 -12 -19 3 -3 -3 -14
-12 -24 -20 -22 -6 -43 17 -27 13 9 12 10 -2 5 -10 -3 -18 -3 -18 0 0 12 26
29 48 32 23 3 24 -1 25 -75 0 -12 4 -20 8 -17 5 3 9 -6 9 -20 0 -13 -6 -27
-12 -29 -8 -3 -5 -6 5 -6 10 -1 15 -6 12 -11 -4 -6 -11 -7 -17 -4 -7 4 -8 2
-4 -4 4 -7 3 -12 -3 -12 -5 0 -11 8 -13 18 -3 14 -5 13 -10 -6 -3 -12 -2 -20
2 -17 5 3 13 -3 19 -12 10 -17 10 -17 11 1 0 11 5 16 14 13 8 -3 13 1 12 11 0
9 9 21 22 27 12 5 22 13 22 18 0 4 4 5 10 2 6 -3 7 1 4 10 -5 11 -2 15 8 13
20 -4 130 92 124 108 -3 7 2 15 10 18 10 4 13 2 8 -6 -14 -23 53 31 93 75 23
25 43 43 46 41 2 -2 16 10 32 26 25 26 26 30 10 30 -10 0 -28 -8 -39 -17 -20
-17 -20 -17 -6 1 14 18 11 18 -103 12 -65 -4 -125 -10 -132 -12 -8 -3 -20 -2
-27 2 -23 15 -36 12 -59 -12z"/>
<path d="M4902 1877 c-54 -20 -103 -67 -129 -124 -22 -48 -25 -65 -21 -128 6
-89 37 -148 100 -191 36 -24 55 -29 119 -32 58 -3 84 0 110 13 45 23 99 64 99
75 0 5 -13 18 -29 29 l-30 21 -36 -25 c-122 -82 -255 -4 -243 142 11 125 122
184 232 123 l45 -24 26 24 25 24 -22 24 c-52 56 -165 78 -246 49z"/>
<path d="M5764 1874 c-47 -17 -106 -70 -130 -116 -22 -43 -29 -138 -14 -192
14 -51 68 -119 110 -141 85 -44 195 -38 268 15 144 104 126 341 -32 422 -53
27 -147 33 -202 12z m166 -93 c94 -66 94 -216 1 -278 -66 -44 -158 -21 -201
49 -25 41 -27 126 -4 173 36 76 137 103 204 56z"/>
<path d="M3770 1645 l0 -235 46 0 47 0 -6 163 c-3 89 -9 173 -13 187 -14 49
13 5 31 -50 10 -30 36 -94 58 -142 l40 -88 38 0 c37 0 40 2 70 63 18 34 47
103 66 152 l34 90 -7 -70 c-3 -38 -7 -123 -8 -188 l-1 -117 48 0 47 0 0 235 0
235 -64 0 -64 0 -58 -140 c-32 -76 -61 -137 -64 -134 -3 3 -30 65 -60 137
l-55 132 -63 3 -62 3 0 -236z"/>
<path d="M4376 1652 c-42 -125 -76 -230 -76 -235 0 -4 22 -7 48 -7 l49 0 18
60 18 60 86 0 86 0 18 -60 17 -60 51 0 c45 0 50 2 44 18 -4 9 -37 107 -75 217
-37 110 -71 208 -75 218 -6 14 -20 17 -70 17 l-63 0 -76 -228z"/>
<path d="M5240 1645 l0 -235 45 0 45 0 0 85 c0 69 3 85 15 85 8 0 40 -38 70
-85 l55 -85 50 0 c27 0 50 2 50 5 0 3 -25 42 -55 87 l-54 82 31 15 c45 21 68
66 68 129 0 112 -57 152 -218 152 l-102 0 0 -235z m210 130 c20 -18 26 -60 12
-81 -13 -20 -50 -34 -91 -34 l-41 0 0 71 0 72 50 -5 c28 -3 59 -13 70 -23z"/>
<path d="M2992 1297 c-133 -49 -194 -224 -124 -358 17 -34 44 -65 71 -84 40
-28 49 -30 134 -30 87 0 94 2 138 32 61 42 66 57 28 84 -27 19 -32 20 -47 6
-109 -96 -262 -30 -262 112 0 51 19 99 51 128 51 45 147 47 194 3 l25 -24 30
29 30 29 -23 24 c-51 56 -164 78 -245 49z"/>
<path d="M3470 1301 c-136 -42 -206 -175 -166 -315 33 -111 109 -165 234 -166
87 0 133 20 184 80 84 97 77 244 -15 338 -59 61 -158 87 -237 63z m140 -96
c45 -23 73 -78 73 -145 0 -95 -48 -151 -137 -158 -61 -5 -111 23 -138 78 -41
81 -7 200 67 230 32 14 104 11 135 -5z"/>
<path d="M4490 1301 c-114 -35 -175 -119 -175 -241 0 -81 15 -121 64 -173 45
-49 92 -67 176 -67 109 0 172 38 221 130 28 52 26 171 -3 226 -54 101 -179
156 -283 125z m145 -101 c48 -30 68 -79 63 -157 -4 -58 -7 -67 -41 -101 -35
-35 -41 -37 -101 -37 -55 0 -68 4 -91 25 -39 36 -55 73 -55 125 0 99 57 165
142 165 33 0 62 -7 83 -20z"/>
<path d="M2508 1069 c-2 -127 0 -235 3 -240 3 -6 62 -8 135 -7 l129 3 3 43 3
42 -90 0 -91 0 0 55 0 55 90 0 90 0 0 40 0 39 -87 3 -88 3 -3 58 -3 57 91 0
90 0 0 40 0 40 -135 0 -134 0 -3 -231z"/>
<path d="M3860 1065 l0 -235 45 0 45 0 -1 138 c0 75 -4 161 -8 190 -9 63 1 68
19 10 6 -24 45 -109 86 -190 l74 -148 60 0 60 0 0 235 0 235 -45 0 -45 0 1
-137 c0 -76 4 -162 8 -192 7 -46 6 -51 -6 -35 -7 10 -13 21 -13 25 0 4 -36 82
-79 173 l-80 166 -60 0 -61 0 0 -235z"/>
<path d="M4870 1060 l0 -240 45 0 45 0 -1 143 c0 78 -4 164 -8 190 -10 60 1
49 24 -23 10 -30 37 -94 62 -142 43 -88 43 -88 81 -88 l39 0 46 103 c25 56 51
123 58 150 17 61 28 61 18 0 -4 -27 -8 -112 -8 -191 l-1 -143 43 3 42 3 3 238
2 237 -62 0 -63 0 -59 -141 c-38 -91 -62 -136 -67 -128 -4 7 -32 71 -61 141
l-53 128 -62 0 -63 0 0 -240z"/>
<path d="M5470 1059 l0 -240 48 3 47 3 3 238 2 237 -50 0 -50 0 0 -241z"/>
<path d="M5726 1072 c-42 -125 -76 -230 -76 -235 0 -4 22 -7 48 -7 l49 0 18
60 18 60 86 0 86 0 18 -60 17 -60 51 0 c45 0 50 2 44 18 -4 9 -37 107 -75 217
-37 110 -71 208 -75 218 -6 14 -20 17 -70 17 l-63 0 -76 -228z"/>
</g>
</svg>
